<svg xmlns="http://www.w3.org/2000/svg" version="1.1" xmlns:xlink="http://www.w3.org/1999/xlink" xmlns:svgjs="http://svgjs.dev/svgjs" viewBox="0 0 6.369671319371575 5.02885240880579"><g transform="matrix(1,0,0,1,3.185230343613804,4.745370146519472)"><rect width="6.369671319371575" height="6.369671319371575" x="-3.185230343613804" y="-5.415779601802365" fill="#ffffff"></rect><g transform="matrix(1,0,0,1,0,0)"><path d=" M -2.595165396198801 -1.1417320449694204 Q -2.5749148197276126 -1.1472920946620537 -2.551657092355552 -1.1381226826041888 Q -2.5271702875471194 -1.128253721652107 -2.520551180770175 -1.1041458925197398 Q -2.516050188161853 -1.0877525687097302 -2.5202280140411832 -1.0689763664600207 Q -2.52943376756015 -1.0156354431257923 -2.514342204108717 -0.9606695927039952 Q -2.4958087051332734 -0.8931676711333671 -2.4535937246610358 -0.8508339325348377 Q -2.4113787441887986 -0.8085001939363083 -2.352374590255355 -0.7956643138107179 Q -2.293370436321912 -0.7828284336851274 -2.2268328279165788 -0.8010971683894936 Q -2.1130438744118054 -0.8323393523766707 -2.0710333025422685 -0.9097238589086273 Q -2.029022730672731 -0.9871083654405839 -2.056293450593741 -1.0864326214659366 Q -2.0724440711294854 -1.1452557245489123 -2.106537666129763 -1.1825602387523846 Q -2.1190179283315205 -1.1977997615590668 -2.1227246281266092 -1.2113001458731922 Q -2.129608499174631 -1.236372288170854 -2.113159366417548 -1.2595547391098694 Q -2.0988088803431153 -1.2790499577397676 -2.0775939907066325 -1.2848747717034783 Q -2.0621649800619175 -1.2891110000407227 -2.0475107947444644 -1.2848384302423763 Q -2.0328566094270113 -1.2805658604440298 -2.0221349532037816 -1.2679545128621539 Q -1.9638751266132228 -1.2030638925412014 -1.940575870758379 -1.1182043339952692 Q -1.9146289721927574 -1.02370164379639 -1.9329372983241095 -0.933640246992498 Q -1.951245624455462 -0.8435788501886063 -2.0163815415615205 -0.7748815991318672 Q -2.0815174586675793 -0.7061843480751281 -2.1924134726764684 -0.6757364569011844 Q -2.2907734155365262 -0.6487305012512518 -2.381194320530512 -0.6721251574801552 Q -2.471615225524498 -0.6955198137090587 -2.537202144773784 -0.7625467189291844 Q -2.602789064023069 -0.82957362414931 -2.6300597839440796 -0.9288978801746627 Q -2.6536238040700013 -1.0147217518858898 -2.6361376752254193 -1.0983353590203189 Q -2.628916356984115 -1.1324652954816985 -2.595165396198801 -1.1417320449694204 M -2.110198480896169 -1.8872808545811504 Q -2.048285668939839 -1.8486149301041626 -2.015973234548126 -1.7846840566259967 Q -1.9836608001564129 -1.720753183147831 -1.98684793909313 -1.6458209327785938 Q -1.99007757321567 -1.5698895857377666 -2.0276806582423332 -1.5094329236029984 Q -2.065283743268997 -1.4489762614682302 -2.1302562086045755 -1.4157072255907501 Q -2.1952286739401536 -1.38243818971327 -2.2751564076673403 -1.3858378045791016 Q -2.355084141394527 -1.3892374194449333 -2.4169969533508566 -1.4279033439219209 Q -2.4789097653071868 -1.4665692683989087 -2.5117429956276065 -1.5300218411341908 Q -2.544576225948026 -1.593474413869473 -2.541346591825486 -1.6694057609103004 Q -2.5381594528887685 -1.7443380112795375 -2.500035571933399 -1.8052729741571891 Q -2.461911690978029 -1.8662079370348408 -2.3969392256424507 -1.8994769729123209 Q -2.331966760306872 -1.9327460087898012 -2.252039026579686 -1.9293463939239697 Q -2.1721112928524993 -1.925946779058138 -2.110198480896169 -1.8872808545811504 M -2.3454305589519127 -1.7926916403251014 Q -2.3847669321174902 -1.7738462232116914 -2.4072140461317666 -1.740269786944123 Q -2.429661160146043 -1.7066933506765547 -2.4314459579506043 -1.6647312904697817 Q -2.433230755755166 -1.622769230263009 -2.4137158095626696 -1.587407996190879 Q -2.394200863370173 -1.552046762118749 -2.356606792823334 -1.5299292156969762 Q -2.3190127222764945 -1.507811669275203 -2.270056985368593 -1.5057294051698813 Q -2.221101248460691 -1.5036471410645595 -2.1822644236309086 -1.5225138057708811 Q -2.1434275988011255 -1.5413804704772025 -2.120980484786849 -1.5749569067447708 Q -2.098533370772573 -1.6085333430123394 -2.0967485729680115 -1.6504954032191121 Q -2.09496377516345 -1.692457463425885 -2.114478721355946 -1.727818697498015 Q -2.133993667548443 -1.763179931570145 -2.171088189759487 -1.7852762303990064 Q -2.2081827119705313 -1.807372529227868 -2.257138448878433 -1.80945479333319 Q -2.3060941857863346 -1.8115370574385117 -2.3454305589519127 -1.7926916403251014 M -2.2984869854289096 -2.6066313825981706 Q -2.2762894419568367 -2.6167565524142993 -2.2518035833452923 -2.6080133992041894 L -2.0125955799863573 -2.5225995178438883 Q -1.910885090369172 -2.4862818045095865 -1.87344586885753 -2.409734076309449 Q -1.8360066473458878 -2.3331863481093107 -1.872996910927121 -2.2295923309066223 Q -1.9099871745083539 -2.1259983137039336 -1.9872749981506879 -2.0909470324629935 Q -2.0645628217930216 -2.0558957512220535 -2.166273311410207 -2.0922134645563553 L -2.405481314769142 -2.1776273459166564 Q -2.4299671733806867 -2.1863704991267663 -2.440731362654924 -2.208265298264196 Q -2.4514955519291606 -2.230160097401626 -2.442752398719051 -2.2546459560131704 Q -2.4340092455089417 -2.279131814624715 -2.411811702036869 -2.2892569844408435 Q -2.389614158564796 -2.2993821542569717 -2.3651282999532515 -2.2906390010468622 L -2.1259202965943165 -2.2052251196865607 Q -2.068472705236462 -2.18471233715515 -2.0316112450167108 -2.200219843417206 Q -1.99474978479696 -2.2157273496792627 -1.9765909281298093 -2.266582594487855 Q -1.9580957963391927 -2.318379603089199 -1.976798399891793 -2.3537273416357354 Q -1.9955010034443932 -2.3890750801822715 -2.0529485948022477 -2.4095878627136824 L -2.2921565981611827 -2.495001744073984 Q -2.3166424567727275 -2.5037448972840934 -2.3274066460469647 -2.5256396964215235 Q -2.3381708353212014 -2.547534495558953 -2.329427682111092 -2.5720203541704976 Q -2.3206845289009825 -2.5965062127820424 -2.2984869854289096 -2.6066313825981706 M -1.9882187106697036 -3.1304168523722264 Q -1.962624719365492 -3.1377787549197977 -1.943621000435458 -3.124822726715589 Q -1.9180072923123683 -3.1073602539186114 -1.9142133274363604 -3.085409039134012 Q -1.9104193625603525 -3.0634578243494124 -1.9228120851904655 -3.0452803540685105 Q -1.9312616688019064 -3.0328866243315313 -1.9477482152536547 -3.0211310390166974 Q -1.9502643806250748 -3.0192155986433975 -1.958657835100479 -3.012229904549801 Q -1.9670512895758834 -3.005244210456204 -1.973810956465036 -2.9953292266666205 Q -1.9884569013915332 -2.973846761789191 -1.9887562567837276 -2.945003905024488 Q -1.9890556121759222 -2.9161610482597853 -1.9709337674776235 -2.8850467630401186 Q -1.952811922779325 -2.8539324778204525 -1.9156307335683886 -2.82858372698613 L -1.7198098037241238 -2.6950803059253663 Q -1.698327338846694 -2.680434360998869 -1.6934441822465183 -2.6565302864169458 Q -1.6885610256463426 -2.632626211835022 -1.7032069705728399 -2.6111437469575924 Q -1.7178529154993372 -2.5896612820801623 -1.7418884616187784 -2.585472902591601 Q -1.76592400773822 -2.581284523103039 -1.7874064726156498 -2.595930468029536 L -2.1286471647071323 -2.8285756701312046 Q -2.150129629584562 -2.843221615057702 -2.155012786184738 -2.867125689639625 Q -2.1598959427849134 -2.891029764221549 -2.145249997858416 -2.912512229098979 Q -2.1306040529319192 -2.9339946939764086 -2.1065685068124775 -2.9381830734649705 Q -2.0825329606930363 -2.942371452953532 -2.061050495815606 -2.927725508027035 L -2.0503092633768913 -2.9204025355637864 Q -2.071229429787091 -2.962501783031758 -2.064771636057297 -3.010141544787496 Q -2.058313842327503 -3.0577813065432333 -2.030711869196797 -3.0982674903506977 Q -2.013812701973915 -3.123054949824655 -1.9882187106697036 -3.1304168523722264 M -1.5879579902888963 -2.969895430166596 Q -1.605551898461283 -2.989038428761947 -1.5985892978314304 -3.019885182115731 Q -1.5943717283397598 -3.035985247568484 -1.5833276906885958 -3.0461355792063998 Q -1.567866037976966 -3.0603460434994814 -1.541019836877465 -3.0592140158826995 Q -1.4979544095234445 -3.056690334679458 -1.46387532964134 -3.0676386822437776 Q -1.4297962497592356 -3.0785870298080966 -1.3959278676289988 -3.1097147134977043 Q -1.3405289381705283 -3.1647052455450977 -1.378423509618746 -3.2059363194427775 Q -1.398047484118716 -3.227288125568361 -1.427708948940355 -3.220399910659208 Q -1.4573704137619936 -3.213511695750055 -1.5087518192975888 -3.186661161953001 Q -1.5622824519625333 -3.1591935197809695 -1.5999832973274761 -3.1462746862899507 Q -1.6376841426924187 -3.1333558527989314 -1.6791876610916256 -3.1393523484828028 Q -1.7206911794908326 -3.1453488441666746 -1.7579090621631894 -3.1858436488876096 Q -1.790390123404519 -3.221184569371335 -1.794165172587118 -3.2659310664819357 Q -1.7979402217697171 -3.310677563592536 -1.778371674533887 -3.355147463064865 Q -1.7588031272980567 -3.3996173625371946 -1.721989668460843 -3.433451801330246 Q -1.6844399404468846 -3.467962928899159 -1.6340331256915668 -3.48848494210993 Q -1.583626310936249 -3.5090069553207015 -1.5372370201038068 -3.501388970281133 Q -1.5168385003923546 -3.4984056175394183 -1.503304724875134 -3.4836802340045327 Q -1.4877408830303303 -3.4667460429394144 -1.491579665750556 -3.4428449185468906 Q -1.4944438576905044 -3.425272314740649 -1.5076967028719015 -3.4130919167751506 Q -1.5238946247602756 -3.398204763706208 -1.5436760360967499 -3.399038889318573 Q -1.5718160343470897 -3.4030564132414485 -1.601596659970495 -3.393342282427085 Q -1.6313772855939004 -3.383628151612721 -1.6578829759566944 -3.3592673556817236 Q -1.7138394333892595 -3.3078390087162854 -1.6766215507169027 -3.26734420399535 Q -1.66173439764796 -3.251146282106976 -1.642291330699416 -3.2506802910829826 Q -1.6228482637508723 -3.2502143000589894 -1.6019433106319125 -3.2592410899144193 Q -1.5810383575129527 -3.2682678797698497 -1.5448802830854547 -3.2865597810842426 Q -1.4949714159033483 -3.3120569373295745 -1.4576387051267776 -3.324637426432663 Q -1.420305994350207 -3.337217915535752 -1.3795685353281861 -3.3298382520997167 Q -1.338831076306165 -3.322458588663681 -1.3022898824096691 -3.2827000531194903 Q -1.2691321323924787 -3.2466228634590206 -1.265784798199135 -3.2001250640078847 Q -1.2624374640057914 -3.1536272645567482 -1.2830806248062963 -3.10884881089693 Q -1.3037237856068014 -3.064070357237112 -1.3390647060905267 -3.0315892959957824 Q -1.387658471755649 -2.9869278367889542 -1.4445129678990156 -2.9645544984532495 Q -1.5013674640423822 -2.9421811601175447 -1.5610309044223667 -2.953897553847017 Q -1.5757775923233976 -2.956642584985199 -1.5879579902888963 -2.969895430166596 M -0.8198093366004449 -3.658844714235143 Q -0.8289009967795156 -3.637249767715452 -0.8502157107038273 -3.626218767292791 L -1.1432930271631143 -3.4745425114812005 Q -1.1055177941619165 -3.4276593399619313 -1.0519314936242268 -3.4176714275331808 Q -0.9983451930865369 -3.40768351510443 -0.9503870867568355 -3.4325032660554173 Q -0.9139744504694695 -3.4513478917774636 -0.8969950372574189 -3.4685801152838613 Q -0.8800156240453685 -3.485812338790259 -0.8719329101126356 -3.4995662377095327 Q -0.8638501961799027 -3.5133201366288067 -0.860788505831837 -3.5182826009574004 Q -0.8489390955471011 -3.534548868996013 -0.8347292862642266 -3.541902869277787 Q -0.8160789115804538 -3.5515549946476157 -0.7958628401135958 -3.545127673709084 Q -0.7756467686467376 -3.5387003527705523 -0.7664542682945201 -3.520938091166959 Q -0.7540443928190264 -3.4969590380021085 -0.7687998086766173 -3.4645510497450513 Q -0.7830955995165976 -3.4312549484078145 -0.8174829140032673 -3.3954427632972286 Q -0.8518702284899371 -3.3596305781866427 -0.8944996563385608 -3.3375685773413206 Q -0.9691011550736519 -3.2989600758620066 -1.0406950982012613 -3.3013174700676147 Q -1.1122890413288706 -3.3036748642732228 -1.1707518246380482 -3.3426665681055017 Q -1.2292146079472257 -3.3816582719377806 -1.2646057343032633 -3.4500429791116143 Q -1.304133485817799 -3.526420704007065 -1.3020370410760385 -3.6006945548527343 Q -1.299940596334278 -3.6749684056984036 -1.2633989877112537 -3.732726183003644 Q -1.2268573790882293 -3.790483960308884 -1.1673538027161923 -3.821278836488813 Q -1.1087383394243349 -3.851614087651131 -1.0402372235998332 -3.8465300802948996 Q -0.9717361077753315 -3.8414460729386684 -0.9126150238947799 -3.80335805066409 Q -0.8534939400142282 -3.7652700283895117 -0.8208605637638557 -3.702213999696756 Q -0.8107176764213743 -3.6804396607548338 -0.8198093366004449 -3.658844714235143 M -1.1883674158440225 -3.5638134445167773 L -0.9556817888369523 -3.6842351991308275 L -0.9588991639602285 -3.690451990692085 Q -0.981755867020604 -3.725914239989187 -1.0284048015155778 -3.7355515067429748 Q -1.0750537360105514 -3.7451887734967615 -1.1167950507789954 -3.7235863976690506 Q -1.2198161680798356 -3.6702698956261885 -1.1883674158440225 -3.5638134445167773 M 0.18954808142220703 -4.183343797143542 Q 0.19029344065412768 -4.162357028940329 0.17601275787270954 -4.141837231200183 Q 0.16076819847361068 -4.12028257024884 0.1357839506126428 -4.119395237829887 Q 0.1187946620671847 -4.118791851784999 0.10148593385090349 -4.127182794970059 Q 0.0517004622179697 -4.148429131461001 -0.005263622905036902 -4.146406013545788 Q -0.0752195169157468 -4.143921482772719 -0.12613970021219517 -4.1125944188653545 Q -0.1770598835086435 -4.0812673549579905 -0.20314334973636772 -4.026807252226292 Q -0.229226815964092 -3.972347149494593 -0.22677777848778136 -3.903390625398322 Q -0.2225895694703226 -3.7854649754945537 -0.15696448880121872 -3.726757235057933 Q -0.09133940813211483 -3.6680494946213127 0.011595693055072576 -3.6717053041873995 Q 0.07255725783583405 -3.6738703952896454 0.11671255816013926 -3.6984531016758515 Q 0.13441727024597105 -3.7070869403330073 0.148408449048113 -3.707583846487621 Q 0.1743920668235196 -3.7085066722033324 0.1931615778120952 -3.687159413427327 Q 0.20882649916708018 -3.668703784504363 0.20960735169575895 -3.6467176463867115 Q 0.21017524444388902 -3.630727727755692 0.20264169798623488 -3.617451972493924 Q 0.19510815152858085 -3.6041762172321556 0.1803660558893071 -3.5966482283797125 Q 0.10379944113665435 -3.554904324569469 0.015854888666047617 -3.551780914454754 Q -0.08208336294894619 -3.548302571372458 -0.16550466774838288 -3.586865972487498 Q -0.24892597254781948 -3.6254293736025387 -0.30077005539272456 -3.704639165130926 Q -0.3526141382376296 -3.783848956659314 -0.356695867364814 -3.8987764968197656 Q -0.36031618363414275 -4.000712228092515 -0.3167204396501508 -4.083311629461303 Q -0.27312469566615877 -4.165911030830092 -0.19279130768467903 -4.2142928122712195 Q -0.1124579197031993 -4.262674593712347 -0.009522818516011888 -4.266330403278434 Q 0.07942110386903356 -4.269489306689907 0.1567574559399426 -4.233211370580415 Q 0.18830581603567265 -4.218321744148897 0.18954808142220703 -4.183343797143542 M 0.8033215936571547 -3.539668403695575 Q 0.751432765929978 -3.4883283651574186 0.6817776049671798 -3.4716128468810776 Q 0.6121224440043818 -3.4548973286047366 0.5399398759189229 -3.4752609448009846 Q 0.4667948735923244 -3.495896075879849 0.4166269715332607 -3.5464151970419615 Q 0.36645906947419704 -3.596934318204074 0.3490526318393332 -3.667823428290628 Q 0.33164619420446945 -3.7387125383771824 0.3533673848138005 -3.8157072776683383 Q 0.37508857542313156 -3.8927020169594946 0.4269774031503083 -3.944042055497651 Q 0.4788662308774851 -3.9953820940358074 0.5481759321610218 -4.012714586874027 Q 0.6174856334445584 -4.030047079712245 0.6906306357711569 -4.009411948633381 Q 0.7628132038566158 -3.989048332437133 0.8133265655949409 -3.9379122367131423 Q 0.863839927333266 -3.886776140989152 0.8812463649681299 -3.815887030902598 Q 0.8986528026029936 -3.7449979208160435 0.8769316119936625 -3.6680031815248872 Q 0.8552104213843315 -3.5910084422337314 0.8033215936571547 -3.539668403695575 M 0.7654671533425252 -3.790364018632227 Q 0.7561905743799071 -3.8329837920097374 0.7286884055955454 -3.86256217452394 Q 0.7011862368111836 -3.892140557038142 0.6607639986833267 -3.9035441821080408 Q 0.6203417605554697 -3.9149478071779398 0.5814359667012092 -3.9041039515642852 Q 0.5425301728469487 -3.8932600959506307 0.5123469479228493 -3.861772432760403 Q 0.48216372299875004 -3.830284769570175 0.46885949375053476 -3.7831254917543418 Q 0.45555526450231953 -3.7359662139385086 0.46496760090624606 -3.6938276576815685 Q 0.4743799373101726 -3.6516891014246284 0.5018821060945342 -3.6221107189104256 Q 0.5293842748788959 -3.592532336396223 0.569806513006753 -3.5811287113263246 Q 0.6102287511346101 -3.5697250862564256 0.6491345449888706 -3.58056894187008 Q 0.688040338843131 -3.5914127974837347 0.718087806325922 -3.622419243553393 Q 0.748135273808713 -3.653425689623051 0.7614395030569283 -3.7005849674388838 Q 0.7747437323051436 -3.747744245254717 0.7654671533425252 -3.790364018632227 M 1.8039336609908796 -3.3048774639967284 Q 1.7969145469411636 -3.2337790671234017 1.7313761590315226 -3.1491994022493586 L 1.5745740346869619 -2.9468405778778157 Q 1.5586488189332173 -2.926288509777581 1.5344920330334282 -2.9228680280875636 Q 1.5103352471336389 -2.9194475463975462 1.489783179033404 -2.9353727621512906 Q 1.469231110933169 -2.951297977905035 1.466512115471113 -2.9755437417345645 Q 1.4637931200090568 -2.999789505564094 1.4797183357628012 -3.0203415736643286 L 1.6365204601073622 -3.2227003980358715 Q 1.6702084165095141 -3.266175926709445 1.6725074485128948 -3.3042444760887872 Q 1.674806480516276 -3.3423130254681297 1.6321214160004036 -3.3753884735720607 Q 1.5878554231691284 -3.409688938272433 1.542436774211135 -3.402502400383398 Q 1.4970181252531412 -3.395315862494363 1.465780202043873 -3.3550021904515948 L 1.308978077699312 -3.1526433660800524 Q 1.2930528619455677 -3.1320912979798172 1.2688960760457784 -3.1286708162898 Q 1.244739290145989 -3.1252503345997824 1.2241872220457544 -3.141175550353527 Q 1.2036351539455197 -3.1571007661072716 1.2009161584834633 -3.181346529936801 Q 1.198197163021407 -3.2055922937663306 1.2141223787751514 -3.2261443618665653 L 1.3709245031197126 -3.4285031862381077 Q 1.4046124595218643 -3.4719787149116814 1.4069114915252452 -3.510047264291024 Q 1.409210523528626 -3.548115813670366 1.3665254590127538 -3.581191261774297 Q 1.322259466181479 -3.6154917264746698 1.2768408172234853 -3.6083051885856343 Q 1.2314221682654916 -3.6011186506965993 1.2001842450562235 -3.560804978653831 L 1.0433821207116625 -3.3584461542822885 Q 1.027456904957918 -3.337894086182054 1.0033001190581288 -3.3344736044920364 Q 0.9791433331583396 -3.331053122802019 0.9585912650581048 -3.3469783385557634 Q 0.93803919695787 -3.362903554309508 0.9353202014958137 -3.3871493181390373 Q 0.9326012060337574 -3.411395081968567 0.9485264217875019 -3.4319471500688015 L 1.2014923489527507 -3.7584088471994543 Q 1.2174175647064953 -3.778960915299689 1.2415743506062844 -3.7823813969897064 Q 1.2657311365060737 -3.785801878679724 1.2862832046063084 -3.7698766629259794 Q 1.3068352727065433 -3.753951447172235 1.3095542681685997 -3.7297056833427056 Q 1.3122732636306558 -3.705459919513176 1.2963480478769114 -3.684907851412941 L 1.2865479151053762 -3.67226042488972 Q 1.3299407460992663 -3.6841794105150028 1.3783639702485058 -3.6789171521602175 Q 1.4267871943977455 -3.6736548938054328 1.4671008664405136 -3.6424169705961646 Q 1.5666993503108821 -3.565240925020326 1.5269896830261254 -3.4568520772354456 Q 1.5708957071785359 -3.4759638809998203 1.62847757265116 -3.474358026494392 Q 1.6860594381237843 -3.472752171988964 1.7326968234281632 -3.436614182393928 Q 1.8109527750405956 -3.375975860870055 1.8039336609908796 -3.3048774639967284 M 2.2482334171051703 -2.6840022505265284 Q 2.2455862313977155 -2.6177508927454967 2.2073637474548318 -2.5580492033118136 Q 2.169141263511948 -2.49834751387813 2.0999177001867975 -2.4582464131380144 Q 2.030694136861647 -2.418145312397899 1.9597074931762626 -2.4140044890154924 Q 1.8887208494908783 -2.409863665633086 1.8301827546268878 -2.4400926492364827 Q 1.771644659762897 -2.4703216328398794 1.7380599878930503 -2.528296367124693 Q 1.713999327448981 -2.5698305051197834 1.7095688612413 -2.6163801664416724 Q 1.705138395033619 -2.662929827763562 1.7153312569383812 -2.701193460186405 L 1.545733526791763 -2.6029457633731217 Q 1.523235868711089 -2.5899129056325845 1.4995717303264378 -2.5958507970522784 Q 1.4759075919417866 -2.6017886884719728 1.462874734201249 -2.6242863465526467 Q 1.4498418764607115 -2.6467840046333206 1.4560303997600315 -2.6700154957471893 Q 1.4622189230593512 -2.6932469868610585 1.4855818756815895 -2.7067811083608473 L 2.0160074296605544 -3.0140557927819827 Q 2.0385050877412283 -3.0270886505225203 2.0621692261258793 -3.021150759102826 Q 2.0858333645105307 -3.015212867683132 2.0988662222510683 -2.992715209602458 Q 2.1118990799916055 -2.970217551521784 2.1052779094215035 -2.9467354285282896 Q 2.0986567388514015 -2.9232533055347947 2.0761590807707275 -2.910220447794257 L 2.07269790260447 -2.9082153927572514 Q 2.1106870690734363 -2.9024862365372495 2.151710537906447 -2.876557005833139 Q 2.1927340067394576 -2.850627775129028 2.2162934034242756 -2.809958931675502 Q 2.250880602812625 -2.7502536083075597 2.2482334171051703 -2.6840022505265284 M 1.9178852087558464 -2.5330807105118844 Q 1.979971160880246 -2.5216642947518144 2.042272367872881 -2.5577552854179184 Q 2.1045735748655168 -2.5938462760840224 2.125373883340141 -2.652700733581823 Q 2.1461741918147657 -2.7115551910796243 2.1135920474634218 -2.7677993362813087 Q 2.081009903112078 -2.8240434814829936 2.0193565982584607 -2.8357105291226894 Q 1.9577032934048435 -2.8473775767623857 1.895402086412208 -2.8112865860962817 Q 1.8331008794195727 -2.7751955954301777 1.8121185555537918 -2.715657858781969 Q 1.7911362316880108 -2.6561201221337596 1.8237183760393547 -2.599875976932075 Q 1.855799256631447 -2.544497126271955 1.9178852087558464 -2.5330807105118844 M 2.5179510093608157 -1.8720068738880051 Q 2.504936035123245 -1.8517927588790473 2.4785482289568845 -1.846075794148828 L 2.0651392656838987 -1.756510013375392 Q 2.039728785671848 -1.7510047880796251 2.019026007585735 -1.7639138925999696 Q 1.9983232294996223 -1.7768229971203136 1.9928180042038555 -1.8022334771323647 Q 1.9873127789080887 -1.8276439571444159 2.0004336228628854 -1.847369409076219 Q 2.0135544668176824 -1.867094861008022 2.0387532073952808 -1.8735774124580984 Q 2.0051172630589864 -1.8918701227167154 1.9760831509314045 -1.9290658258685982 Q 1.9470490388038224 -1.966261529020481 1.9370972853845516 -2.012195858273035 Q 1.9224872644073245 -2.0796313629204013 1.9453249345559736 -2.1418783774848085 Q 1.9681626047046228 -2.2041253920492156 2.0228526208064226 -2.2492280764347914 Q 2.077542636908223 -2.294330760820367 2.1557287292529956 -2.311269915576572 Q 2.233914821597768 -2.3282090703327776 2.302750694298914 -2.310380087482607 Q 2.371586567000059 -2.2925511046324356 2.4180331840901697 -2.2458262529913156 Q 2.46447980118028 -2.199101401350196 2.478666343288602 -2.133620549011449 Q 2.488829836142325 -2.0867088936045852 2.4806196846889144 -2.0419557550206595 Q 2.4724095332355027 -1.9972026164367338 2.4521621706682666 -1.9631431932315344 L 2.453139496822576 -1.963354932665987 Q 2.4785499768346275 -1.9688601579617537 2.49925275492074 -1.9559510534414095 Q 2.519955533006853 -1.9430419489210653 2.5254607583026196 -1.9176314689090141 Q 2.530965983598386 -1.892220988896963 2.5179510093608157 -1.8720068738880051 M 2.1166466262570838 -1.9272883545278456 Q 2.1717509353993476 -1.8972756053376467 2.242118418509643 -1.9125208446182316 Q 2.3124859016199384 -1.9277660838988164 2.350716240214247 -1.9779999490792357 Q 2.388946578808555 -2.028233814259655 2.3751835155691383 -2.0917600142897825 Q 2.361632191764174 -2.154308888165601 2.306039219544755 -2.1842157676385736 Q 2.2504462473253364 -2.2141226471115463 2.180078764215041 -2.1988774078309614 Q 2.1097112811047456 -2.1836321685503766 2.0718637358703655 -2.1339928361643388 Q 2.034016190635986 -2.0843535037783005 2.0477792538754027 -2.0208273037481725 Q 2.0615423171148195 -1.9573011037180448 2.1166466262570838 -1.9272883545278456 M 2.1210601549873638 -1.6437774752314405 Q 2.147008447087339 -1.6421385313354055 2.1633337054143644 -1.6150555857689444 Q 2.1714332982741835 -1.6005161017510994 2.1704877537187786 -1.5855459332318829 Q 2.169163991341212 -1.5645876973049795 2.1490040881133585 -1.5468231736174844 Q 2.1161746507295014 -1.5188369619935542 2.099155802340241 -1.4873471414239896 Q 2.082136953950981 -1.455857320854425 2.0792372839810733 -1.4099488040621606 Q 2.077314485996812 -1.3319148188511531 2.133203115135221 -1.328384785844309 Q 2.1621454409390397 -1.3265567330371932 2.178786071506138 -1.3520584861990712 Q 2.1954267020732363 -1.3775602393609492 2.213926903599297 -1.4325033239439533 Q 2.2335511889673594 -1.4893793946924925 2.251820193806009 -1.5247982238968212 Q 2.270089198644658 -1.56021705310115 2.304195025817509 -1.5846156709483892 Q 2.33830085299036 -1.6090142887956285 2.393191470894154 -1.6055472920924778 Q 2.4410960101556474 -1.6025215495151828 2.474791910632885 -1.5728384517821612 Q 2.5084878111101223 -1.5431553540491394 2.5251439146707364 -1.4975146461867708 Q 2.541800018231351 -1.451873938324402 2.5386482030466686 -1.40197337659368 Q 2.5354333515582925 -1.3510748036283433 2.513256286612242 -1.301373920433186 Q 2.4910792216661917 -1.251673037238029 2.452324753178342 -1.225063054670875 Q 2.435537101476493 -1.2130974894799855 2.415576876784204 -1.2143582155538586 Q 2.392622618388072 -1.2158080505388125 2.378850139639035 -1.2357158085518916 Q 2.368754524309987 -1.2503813651771238 2.369889177776473 -1.2683455674001838 Q 2.371275976457733 -1.2903018145617016 2.386130641994046 -1.3033914635945927 Q 2.4092215426220496 -1.3199688671363923 2.423992223327306 -1.3475927153748866 Q 2.438762904032563 -1.3752165636133808 2.4410322109655342 -1.4111449680595007 Q 2.4458229700462515 -1.4869938218901981 2.3909323521424573 -1.4904608185933488 Q 2.3689761049809395 -1.4918476172746091 2.3546204450619332 -1.4787264500898711 Q 2.3402647851429275 -1.4656052829051331 2.3314244203539056 -1.444620813638625 Q 2.322584055564884 -1.4236363443721167 2.3091475161400727 -1.3854073055627838 Q 2.290773387221399 -1.3324602434490085 2.2725359005345966 -1.297540419861987 Q 2.2542984138477946 -1.2626205962749655 2.2197881355131766 -1.2397505134314948 Q 2.185277857178559 -1.216880430588024 2.131385250509379 -1.220284390987481 Q 2.0824827000132715 -1.2233731698684698 2.0478833427569603 -1.2546163207571066 Q 2.0132839855006486 -1.2858594716457437 1.9971899238610353 -1.33246667259088 Q 1.9810958622214219 -1.3790738735360164 1.984121604798717 -1.4269784127975096 Q 1.9882820008424975 -1.4928471542820627 2.013831317314553 -1.5483469959738256 Q 2.039380633786609 -1.6038468376655886 2.090552491215688 -1.6366864632307199 Q 2.1030959527643036 -1.644912128697926 2.1210601549873638 -1.6437774752314405 M 2.0793729538128773 -1.1348184505628063 Q 2.1041789094591055 -1.1270297045483713 2.1135635173535974 -1.0968315401229192 Q 2.117956254146442 -1.0807783826930306 2.1134627468304217 -1.0664672544355915 Q 2.1071718365879937 -1.0464316748751767 2.083352631528278 -1.0339960216827127 Q 2.044789285164197 -1.014660346954276 2.020742224388714 -0.9881464097125114 Q 1.9966951636132313 -0.9616324724707468 1.9829150745107695 -0.9177450124812667 Q 1.9624110621189523 -0.8424284440793791 2.0158392742800584 -0.8256526834329039 Q 2.043507455577774 -0.8169652359552648 2.065757113426849 -0.8377547218940538 Q 2.0880067712759236 -0.8585442078328427 2.1190936601798382 -0.9074789126779287 Q 2.151733758609718 -0.9580222008029385 2.177933163219969 -0.9880528717589523 Q 2.2041325678302197 -1.018083542714966 2.2430785419796404 -1.0336306034517313 Q 2.2820245161290607 -1.049177664188497 2.334498653073004 -1.0327014706964228 Q 2.3802942634968094 -1.0183222472851583 2.405925836960045 -0.9814505448319387 Q 2.431557410423281 -0.9445788423787191 2.436831138787092 -0.8962809357041568 Q 2.4421048671509027 -0.8479830290295945 2.4271265094308356 -0.800279268171464 Q 2.411848584556367 -0.7516214320961709 2.3784432305558085 -0.7086553719545033 Q 2.3450378765552506 -0.6656893118128359 2.301049646042595 -0.64910511522797 Q 2.2818900695607756 -0.6414952118752776 2.2628085652175236 -0.6474865549633044 Q 2.2408648352227836 -0.6543765995145354 2.23224548289897 -0.6769975359566451 Q 2.2259445956718 -0.6936498276953366 2.2313368044510242 -0.7108231816042635 Q 2.237927281847854 -0.7318128363818409 2.2554782750497493 -0.7409759492604986 Q 2.2818601386065507 -0.751558825772596 2.302800780330103 -0.7748555964545129 Q 2.323741422053655 -0.7981523671364298 2.3345258396121036 -0.8324990749542837 Q 2.357292943346606 -0.905008791458642 2.3048188064026625 -0.9214849849507161 Q 2.2838291516250853 -0.9280754623475456 2.266755196031771 -0.9187625658916873 Q 2.249681240438457 -0.9094496694358288 2.2360849824901083 -0.8911838059248428 Q 2.22248872454176 -0.8729179424138569 2.200310778131319 -0.8390042476429298 Q 2.169823023536207 -0.7919776932321692 2.143773402503157 -0.7624240598847367 Q 2.1177237814701066 -0.7328704265373043 2.078750120443707 -0.7189042622034834 Q 2.039776459417307 -0.7049380978696627 1.9882563976905263 -0.7211147242073352 Q 1.9415067120495584 -0.7357935147730011 1.9153704141007621 -0.774395897206366 Q 1.889234116151966 -0.8129982796397307 1.8847369925511375 -0.862100477954255 Q 1.880239868950309 -0.9112026762687793 1.8946190923615738 -0.9569982866925846 Q 1.9143905245520625 -1.0199672510253168 1.9524555071305165 -1.067759061006756 Q 1.9905204897089708 -1.1155508709881952 2.048054592908387 -1.135218788240383 Q 2.0621995999039506 -1.1402106593420305 2.0793729538128773 -1.1348184505628063" fill="#0e0904" fill-rule="nonzero"></path></g><g transform="matrix(1,0,0,1,0,0)"><g clip-path="url(#SvgjsClipPath1004)"><g clip-path="url(#SvgjsClipPath1001fef6fc33-79ce-4c3c-9f61-31ca01643a23)"><path d=" M 1.1303915795105195 -1.2474396872198124 C 0.9889555347538308 -1.2474396872198124 0.9890361802349332 -1.3228754702426235 1.0254395504043763 -1.3831337737220382 C 1.0537461142711781 -1.4300533146271823 1.0533106286732274 -1.463472801995851 1.0503267458724537 -1.4796664146011327 C 1.0476977031885286 -1.539827943503225 0.9910200590700424 -1.5879571666248988 0.9212939761092538 -1.5879571666248988 C 0.8515678931484638 -1.5879571666248988 0.7949063781261976 -1.539827943503225 0.7922612063460521 -1.4796341564086921 C 0.7892934526414987 -1.463505060188292 0.7888418379473277 -1.4300533146271823 0.8171806600065703 -1.3831337737220382 C 0.8535356428873526 -1.3228754702426235 0.8536485465608954 -1.2474396872198124 0.7122125018042071 -1.2474396872198124 L 0.518243990657675 -1.2474396872198124 C 0.3909854214787185 -1.2474396872198124 0.3909854214787185 -1.2448912900169888 0.3909854214787185 -1.1201488598484148 L 0.3909854214787185 -0.89905120885917 C 0.3909854214787185 -0.8877608415048903 0.39454995174342633 -0.8736478823120404 0.40098546113536604 -0.870470450356621 C 0.4048769431396715 -0.8685731446748979 0.40915634015786617 -0.8676068292191763 0.4134855107061759 -0.8676478585180512 C 0.4218861508631724 -0.8677998127435171 0.43009162584154836 -0.8702063064235293 0.43724366943882575 -0.8746156280852642 C 0.47088784980587706 -0.8963940413521008 0.5098607768481938 -0.9085277539654757 0.549921535634541 -0.9096964123646347 C 0.5574138586475432 -0.9097220954074592 0.5648974580805968 -0.9091829311831754 0.5723087211884557 -0.9080835027425942 C 0.6640187622976503 -0.9017608970241975 0.7352125930144973 -0.8190831497984266 0.7352125930144973 -0.7179053292078565 C 0.7352125930144973 -0.616727508617287 0.66398650410521 -0.5340336322952957 0.5723087211884557 -0.5277271556731193 C 0.5648965756018778 -0.5266357669648754 0.5574135795315498 -0.5260966462105285 0.549921535634541 -0.5261142460510797 C 0.5098693421235532 -0.527273969824996 0.47090444371439544 -0.5394086568295662 0.4372759276312652 -0.5611950303304498 C 0.430119038940153 -0.5655914182783155 0.4219157014842885 -0.5679917159317283 0.41351776889861735 -0.5681466708014429 C 0.4091770312163605 -0.5681992891484327 0.4048845215483039 -0.5672325076916631 0.40098546113536715 -0.5653240789628726 C 0.39453382264720704 -0.5620982597187925 0.3909854214787185 -0.5480820751032645 0.3909854214787185 -0.536759449556544 L 0.3909854214787185 -0.31490373104494074 C 0.3909854214787185 -0.18761290367354322 0.3909854214787185 -0.18761290367354322 0.518243990657675 -0.18761290367354322 L 1.3243600906570512 -0.18761290367354322 C 1.3581154394621087 -0.18761718110478798 1.390486557828316 -0.20103054358523664 1.4143521690773642 -0.22490220441888553 C 1.438217780326414 -0.2487738652525353 1.4516229378093515 -0.28114838223995164 1.451618659836008 -0.31490373104494074 L 1.451618659836008 -1.120229505329517 C 1.451618659836008 -1.2475203327009146 1.451618659836008 -1.2475203327009146 1.3243600906570512 -1.2475203327009146 Z" fill="#8c1627" transform="matrix(1,0,0,1,0,0)" fill-rule="nonzero"></path></g><g clip-path="url(#SvgjsClipPath1001fef6fc33-79ce-4c3c-9f61-31ca01643a23)"><path d=" M 0.3388561824943854 -0.508727080325488 C 0.3388561824943854 -0.6501792541783971 0.4142919655171975 -0.6500663505048543 0.4745341399003906 -0.6136791094316316 C 0.5214859389979758 -0.5853564164686094 0.5549054263666449 -0.58580803116278 0.571066780779486 -0.5887757848673338 C 0.6312283096815778 -0.5914209566474793 0.6793736618994717 -0.6480824716697446 0.6793736618994717 -0.7178085546305342 C 0.6793736618994717 -0.7875346375913237 0.631228309681577 -0.8441961526135895 0.571066780779486 -0.8468413243937349 C 0.5549376845590857 -0.8498252071945092 0.5214536808055343 -0.8502606927924599 0.4745341399003906 -0.8219379998294372 C 0.4142919655171964 -0.7855668878524349 0.3388561824943854 -0.7854539841788926 0.3388561824943854 -0.9269061580318012 L 0.3388561824943854 -1.1208585400821125 C 0.3388561824943854 -1.2481332383572896 0.320178689071162 -1.2481332383572896 0.19108140292308073 -1.2481332383572896 L -0.009580683154917002 -1.2481332383572896 C -0.020871050509197797 -1.2481332383572896 -0.03500013879826813 -1.244552578996361 -0.038145312561246314 -1.2381331987006414 C -0.04005203283798142 -1.2342335373064375 -0.04101872161122233 -1.229941439153249 -0.04096790439981657 -1.225600890937391 C -0.04082692231210672 -1.2172109469541195 -0.03842534763858385 -1.209014389309682 -0.03401626392882462 -1.201874990397182 C -0.012235792861365002 -1.1682258078389132 -0.00010202825740690535 -1.12924713506289 0.0010645203505454948 -1.0891809951052467 C 0.0010977033080716847 -1.0816937716635384 0.0005584959346345286 -1.0742149653939648 -0.0005483892714956973 -1.0668099386475487 C -0.006854865893671347 -0.9750998975383569 -0.0895648713118824 -0.9039060668215111 -0.19071043371001206 -0.9039060668215111 C -0.2918559961081406 -0.9039060668215111 -0.37458213062257184 -0.9751644139232387 -0.3809047363409688 -1.0668099386475518 C -0.38199556469834595 -1.0742167329100922 -0.3825346845887392 -1.0816943257898501 -0.3825176459630091 -1.0891809951052467 C -0.3813442749028948 -1.1292456804164273 -0.36919892607737026 -1.168220143850106 -0.3474046034911984 -1.201858861300962 C -0.3430137325088596 -1.2090063616706754 -0.3406136501029762 -1.2171978262160426 -0.34045296302020556 -1.2255847618411704 C -0.3404002201572711 -1.2299306825514114 -0.34136694313875027 -1.2342284567205009 -0.3432755548587758 -1.2381331987006416 C -0.3465013741028562 -1.244584837188802 -0.36053368781460393 -1.2481332383572896 -0.3718563133613253 -1.2481332383572896 L -0.593792677354029 -1.2481332383572896 C -0.6275508205344617 -1.2481375164137405 -0.6599277818256766 -1.2347301449640382 -0.6837999063581182 -1.2108610452826518 C -0.7076720308905613 -1.1869919456012656 -0.721083504996498 -1.1546166835336173 -0.7210835047254265 -1.1208585400821127 L -0.7210835047254265 -0.3147585691789567 C -0.7210792272941926 -0.28100322037394276 -0.7076658648137552 -0.24863210200773134 -0.683794203980114 -0.22476649075867394 C -0.6599225431464725 -0.200900879509617 -0.6275480261590604 -0.18749572202666798 -0.5937926773540724 -0.18750000000000044 L 0.19108140292307962 -0.18750000000000044 C 0.3183722302944767 -0.18750000000000044 0.3388561824943843 -0.18750000000000044 0.3388561824943843 -0.3147585691789567 Z" fill="#0e0904" transform="matrix(1,0,0,1,0,0)" fill-rule="nonzero"></path></g><g clip-path="url(#SvgjsClipPath1001fef6fc33-79ce-4c3c-9f61-31ca01643a23)"><path d=" M 0.41217905391232446 -2.0696848834395882 C 0.41217905391232446 -1.9282327095866794 0.3162754477858247 -1.907861661060314 0.2560171443064103 -1.9442327730373163 C 0.20906534520882625 -1.972555466000339 0.17564585784015696 -1.972103851306168 0.15946837433109562 -1.9691522266978345 C 0.0993068454290027 -1.966507054917689 0.05117762230732925 -1.9098132817029825 0.05117762230732925 -1.840119456934634 C 0.05117762230732925 -1.7704256321662852 0.09932297452522398 -1.7137479880477993 0.15948450342731602 -1.7110866871714332 C 0.1756135996477155 -1.7080866752744386 0.20906534520882625 -1.707651189676488 0.2560171443064103 -1.7359738826395108 C 0.3162754477858247 -1.7723772528089536 0.41217905391232446 -1.7519739460901476 0.41217905391232446 -1.6105217722372385 L 0.41217905391232446 -1.437069471483056 C 0.41217905391232446 -1.3097786441116586 0.4097919476717051 -1.3097786441116586 0.5394537521875022 -1.3097786441116586 L 0.7401158382654986 -1.3097786441116586 C 0.7514062056197788 -1.3097786441116586 0.7655191648126287 -1.3133593034725872 0.7687127258642685 -1.3197786837683068 C 0.7706048658588429 -1.3236828487470462 0.7715655332927285 -1.3279727257362945 0.7715191886066175 -1.3323109915315576 C 0.7713587662407622 -1.3407080881926028 0.768958880348753 -1.3489100183989349 0.7645675481356258 -1.3560691502642068 C 0.7427713643511846 -1.389705997841608 0.7306309567835392 -1.4286825085344248 0.7294706347600353 -1.4687470164599221 C 0.7294455326931271 -1.4762286099079371 0.7299846981632112 -1.4837014433233002 0.7310835443820753 -1.4911019438214002 C 0.7374061501004725 -1.5828442431230323 0.8201000264224643 -1.654005815647437 0.921261717916813 -1.654005815647437 C 1.0224234094111617 -1.654005815647437 1.1051334148293739 -1.5827635976419299 1.111456020547771 -1.4911019438213964 C 1.1125548058539767 -1.4837014366134154 1.113093970991732 -1.4762286078041313 1.1130689301698111 -1.4687470164599221 C 1.1119036699085973 -1.4286833332825524 1.0997636674648366 -1.3897081232310309 1.0779720167942197 -1.356069150264206 C 1.073566022010025 -1.3489224520905596 1.0711648203300528 -1.3407215962369186 1.071020376323228 -1.3323271206277778 C 1.0709713536403358 -1.3279867615585512 1.0719379502309074 -1.3236950726964156 1.0738429681617983 -1.3197948128645274 C 1.0770687874058784 -1.3133431743763668 1.091084972021406 -1.3097786441116588 1.102391468471906 -1.3097786441116588 L 1.32427944517595 -1.3097786441116588 C 1.451570272547348 -1.3097786441116588 1.451570272547348 -1.3097786441116588 1.451570272547348 -1.437069471483056 L 1.451570272547348 -2.2431694423862116 C 1.45156599557524 -2.2769233085729272 1.4381521182977153 -2.309292769233391 1.4142799935889077 -2.333155819388942 C 1.3904078688801 -2.3570188695444925 1.3580333105490219 -2.370420438853103 1.3242794451758915 -2.370411882468948 L 0.5394537521875022 -2.370411882468948 C 0.41217905391232446 -2.370411882468948 0.41217905391232446 -2.370411882468948 0.41217905391232446 -2.2431694423862116 Z" fill="#bfbe5f" transform="matrix(1,0,0,1,0,0)" fill-rule="nonzero"></path></g><g clip-path="url(#SvgjsClipPath1001fef6fc33-79ce-4c3c-9f61-31ca01643a23)"><path d=" M -0.7711966066822101 -1.7112641072298576 C -0.6437767465410497 -1.7728449965993451 -0.583760379504941 -1.6953446892603226 -0.5902926634742022 -1.625247637086464 C -0.595389457879848 -1.5706829045728503 -0.5804377856835379 -1.540795689276449 -0.5707119406626366 -1.5275214430870598 C -0.5421634403525286 -1.4744728456181637 -0.4701954130171029 -1.4558276103873813 -0.4074048414310858 -1.4861503112817336 C -0.3446142698450687 -1.5164730121760859 -0.314549634490243 -1.584537798226174 -0.33838843870399415 -1.6398122109734852 C -0.3427271655872821 -1.6556509834619182 -0.3568723829725726 -1.6859736843562703 -0.40279191991205154 -1.7158931578451124 C -0.4617598956938338 -1.754296535945885 -0.48516321430963527 -1.849522720031127 -0.357791741457135 -1.9110552221119534 L -0.20161370275500068 -1.9865555215196462 C -0.13833634944929063 -2.0171561454492175 -0.11182581628366228 -2.0932439747064517 -0.14238766143369141 -2.1565400665864427 L -0.2297105883709376 -2.337185944254924 C -0.2345493172370574 -2.347363403969996 -0.2439687094297709 -2.3585086094582928 -0.2511461572478493 -2.3585731258431744 C -0.2554903769713326 -2.3585869348045794 -0.2597772636850453 -2.357581505188734 -0.2636623359148802 -2.3556376303310613 C -0.27116333587133656 -2.3518736319085205 -0.27750584633567543 -2.3461497670167137 -0.2820172474136946 -2.3390730485127107 C -0.30282097699467125 -2.304810717644731 -0.33262966243434233 -2.276915634882545 -0.36819500851929177 -2.25842756741071 C -0.3749716568107886 -2.2551584344277176 -0.3819798906904177 -2.252392877519833 -0.38916283360581216 -2.250153341049645 C -0.4744857526117301 -2.2159596570623967 -0.5746474401404142 -2.259427571376375 -0.6185992273410044 -2.3505085777329744 C -0.662551014541595 -2.4415895840895736 -0.6344702580218778 -2.547025486082329 -0.5546312317308979 -2.5926224410974 C -0.5484520114277782 -2.5968644138700587 -0.54194796242716 -2.600612601312372 -0.5351795416890953 -2.603832162970578 C -0.49861394199316134 -2.620226977918308 -0.4582477403801457 -2.6262637754504827 -0.4184855305345003 -2.621283845081051 C -0.41014115261171646 -2.6204424447456853 -0.4017232824316126 -2.621839855734578 -0.39409833704925434 -2.6253322482323713 C -0.3901627046870111 -2.627195108085392 -0.38672050907530786 -2.629957704884513 -0.38404991010394496 -2.6333967963425713 C -0.3796466668357761 -2.6390581091159317 -0.38243700048190576 -2.6533001010785453 -0.38746927850267054 -2.6634775607936176 L -0.483872886612002 -2.863220288387052 C -0.514512078322341 -2.9264637915604226 -0.5905700849969958 -2.952961419692238 -0.6538735607750197 -2.9224463297083614 L -1.3796828906930236 -2.5716707451071 C -1.4429685032208945 -2.5410769964759434 -1.469476102711137 -2.464976862717386 -1.438892802918112 -2.4016862000403036 L -1.0973591904511402 -1.6950059782396942 C -1.0667728372839358 -1.631739878737038 -0.9906960101844726 -1.6052400727902811 -0.9274230326730056 -1.6358121951108258 Z" fill="#e5e5c4" transform="matrix(1,0,0,1,0,0)" fill-rule="nonzero"></path></g></g></g></g><defs><clipPath id="SvgjsClipPath1004"><path d=" M -1.451618659836008 -2.935139928433816 h 2.903237319672016 v 2.747639928433816 h -2.903237319672016 Z"></path></clipPath><clipPath id="SvgjsClipPath1001fef6fc33-79ce-4c3c-9f61-31ca01643a23"><path d=" M -1.451618659836008 -2.9351399284338164 L 1.451618659836008 -2.9351399284338164 L 1.451618659836008 -0.18749999999999956 L -1.451618659836008 -0.18749999999999956 Z"></path></clipPath></defs></svg>